<svg version="1.1" id="Слой_1" xmlns="http://www.w3.org/2000/svg" xmlns:xlink="http://www.w3.org/1999/xlink" x="0px" y="0px"
	 viewBox="0 0 748 153" style="enable-background:new 0 0 748 153;" xml:space="preserve">
<style type="text/css">
	.st0{fill:#FF0063;}
	.st1{fill:#FFFFFF;}
</style>
<polygon class="st0" points="146,145.6 77.6,77.1 146,8.7 "/>
<path class="st1" d="M111.8,111.3L77.7,77.2l-0.1-0.1L9,8.7c0,45.6,0,91.2,0,136.8c12-11.4,22.9-22.8,34.3-34.1l34.2,34.1
	L111.8,111.3z"/>
<path class="st1" d="M164.9,77.2c0-29.6,22.7-50.3,53.6-50.3c18.8,0,33.7,6.9,43.1,19.2l-20.5,18.3c-5.6-7.2-12.4-11.3-21-11.3
	c-13.4,0-22.5,9.3-22.5,24.1c0,14.7,9.1,24.1,22.5,24.1c8.7,0,15.4-4.1,21-11.3l20.5,18.3c-9.5,12.4-24.3,19.2-43.1,19.2
	C187.5,127.5,164.9,106.6,164.9,77.2z"/>
<path class="st1" d="M312.2,101h-8.8v24.2H271V29h46.3c26.8,0,43.9,14.1,43.9,36.2c0,13.8-6.6,24.3-18.2,30.2l20.3,29.8h-34.7
	L312.2,101z M315.3,54h-11.8v22.6h11.8c9,0,13.2-4.2,13.2-11.3S324.2,54,315.3,54z"/>
<path class="st1" d="M453.4,100.7v24.5h-80V29h78.2v24.5h-46.3v11.3H446v23.4h-40.7v12.7h48.1V100.7z"/>
<path class="st1" d="M531.5,108.4h-36.6l-6.4,16.8h-33L497.6,29h31.9l42,96.3h-33.5L531.5,108.4z M522.5,85.1l-9.3-24.2l-9.4,24.2
	H522.5z"/>
<path class="st1" d="M592.8,54.1h-28.2V29h88.8v25.2h-28.2v71.1h-32.4V54.1H592.8z"/>
<path class="st1" d="M741.8,100.7v24.5h-80V29H740v24.5h-46.3v11.3h40.7v23.4h-40.7v12.7h48.1V100.7z"/>
</svg>
